<svg xmlns="http://www.w3.org/2000/svg" xmlns:xlink="http://www.w3.org/1999/xlink" width="1080" zoomAndPan="magnify" viewBox="0 0 810 1012.49997" height="1350" preserveAspectRatio="xMidYMid meet" version="1.2"><defs><clipPath id="6d6f2e78a8"><path d="M 117.988281 316.574219 L 414 316.574219 L 414 689 L 117.988281 689 Z M 117.988281 316.574219 "/></clipPath><clipPath id="dc6a033de7"><path d="M 436 411 L 692.203125 411 L 692.203125 695.136719 L 436 695.136719 Z M 436 411 "/></clipPath></defs><g id="b026c5e676"><g clip-rule="nonzero" clip-path="url(#6d6f2e78a8)"><path style=" stroke:none;fill-rule:nonzero;fill:#ffffff;fill-opacity:1;" d="M 284.164062 316.78125 C 299.734375 316.492188 315.113281 318.070312 330.296875 321.511719 C 336.667969 322.902344 342.847656 324.878906 348.84375 327.441406 C 354.835938 330.003906 360.535156 333.105469 365.9375 336.746094 C 370.929688 340.371094 375.367188 344.578125 379.25 349.367188 C 383.132812 354.15625 386.328125 359.363281 388.839844 364.992188 C 391.722656 371.914062 393.855469 379.0625 395.234375 386.433594 C 396.609375 393.804688 397.203125 401.238281 397.007812 408.734375 C 397.171875 412.828125 397.035156 416.910156 396.601562 420.984375 C 396.164062 425.058594 395.433594 429.078125 394.410156 433.042969 C 393.386719 437.007812 392.078125 440.878906 390.484375 444.65625 C 388.890625 448.429688 387.035156 452.070312 384.90625 455.574219 C 380.410156 462.226562 375.109375 468.164062 369.003906 473.382812 C 362.898438 478.601562 356.210938 482.914062 348.933594 486.324219 C 353.832031 487.644531 358.574219 489.382812 363.164062 491.542969 C 367.753906 493.699219 372.117188 496.246094 376.253906 499.175781 C 380.394531 502.105469 384.242188 505.375 387.796875 508.988281 C 391.355469 512.597656 394.570312 516.496094 397.4375 520.675781 C 400.195312 525.113281 402.613281 529.730469 404.695312 534.527344 C 406.777344 539.320312 408.496094 544.242188 409.851562 549.289062 C 411.210938 554.335938 412.191406 559.453125 412.796875 564.644531 C 413.402344 569.835938 413.628906 575.042969 413.46875 580.265625 C 413.652344 588.640625 412.886719 596.925781 411.175781 605.125 C 409.464844 613.324219 406.851562 621.226562 403.332031 628.832031 C 400.082031 635.464844 396.105469 641.632812 391.410156 647.335938 C 386.710938 653.039062 381.417969 658.121094 375.53125 662.589844 C 369.46875 667.003906 363.050781 670.832031 356.285156 674.074219 C 349.519531 677.3125 342.515625 679.910156 335.269531 681.867188 C 320.175781 686.039062 304.800781 688.105469 289.136719 688.066406 L 117.988281 688.066406 L 117.988281 316.78125 Z M 274.289062 466.953125 C 277.316406 467.074219 280.328125 466.945312 283.332031 466.5625 C 286.335938 466.179688 289.285156 465.550781 292.183594 464.667969 C 295.082031 463.789062 297.882812 462.671875 300.59375 461.320312 C 303.300781 459.96875 305.875 458.398438 308.320312 456.613281 C 309.496094 455.570312 310.605469 454.460938 311.652344 453.285156 C 312.695312 452.113281 313.667969 450.882812 314.570312 449.59375 C 315.472656 448.308594 316.296875 446.972656 317.042969 445.589844 C 317.789062 444.207031 318.449219 442.785156 319.03125 441.324219 C 319.609375 439.863281 320.101562 438.375 320.507812 436.855469 C 320.914062 435.339844 321.230469 433.800781 321.457031 432.246094 C 321.6875 430.691406 321.820312 429.128906 321.867188 427.558594 C 321.910156 425.988281 321.863281 424.421875 321.722656 422.855469 C 321.882812 419.1875 321.601562 415.554688 320.878906 411.953125 C 320.160156 408.355469 319.019531 404.890625 317.460938 401.566406 C 316.140625 398.917969 314.472656 396.511719 312.457031 394.339844 C 310.445312 392.171875 308.164062 390.332031 305.621094 388.816406 C 300.410156 385.445312 294.742188 383.257812 288.617188 382.261719 C 282.023438 380.988281 275.367188 380.410156 268.652344 380.535156 L 195.523438 380.535156 L 195.523438 467.28125 L 274.289062 467.28125 Z M 278.550781 625.023438 C 285.949219 625.121094 293.253906 624.332031 300.457031 622.65625 C 307.078125 621.195312 313.191406 618.554688 318.789062 614.730469 C 321.503906 612.839844 323.945312 610.640625 326.105469 608.132812 C 328.265625 605.625 330.082031 602.886719 331.550781 599.921875 C 333.257812 596.140625 334.496094 592.214844 335.269531 588.140625 C 336.039062 584.066406 336.324219 579.957031 336.125 575.816406 C 336.308594 573.9375 336.382812 572.050781 336.351562 570.160156 C 336.320312 568.273438 336.183594 566.390625 335.9375 564.515625 C 335.691406 562.640625 335.339844 560.789062 334.878906 558.953125 C 334.421875 557.121094 333.859375 555.320312 333.199219 553.550781 C 332.535156 551.78125 331.769531 550.054688 330.910156 548.371094 C 330.046875 546.6875 329.09375 545.058594 328.046875 543.484375 C 327 541.910156 325.867188 540.402344 324.648438 538.957031 C 323.425781 537.511719 322.128906 536.140625 320.753906 534.84375 C 317.847656 532.707031 314.78125 530.835938 311.554688 529.230469 C 308.324219 527.621094 304.980469 526.304688 301.523438 525.277344 C 298.066406 524.25 294.546875 523.527344 290.964844 523.105469 C 287.378906 522.6875 283.789062 522.578125 280.1875 522.78125 L 195.523438 522.78125 L 195.523438 625.023438 Z M 278.550781 625.023438 "/></g><g clip-rule="nonzero" clip-path="url(#dc6a033de7)"><path style=" stroke:none;fill-rule:nonzero;fill:#ffffff;fill-opacity:1;" d="M 523.898438 623.648438 C 526.941406 626.46875 530.234375 628.949219 533.785156 631.097656 C 537.332031 633.246094 541.058594 635.015625 544.96875 636.40625 C 548.875 637.796875 552.882812 638.78125 556.992188 639.355469 C 561.101562 639.933594 565.226562 640.09375 569.367188 639.832031 C 572.625 639.914062 575.871094 639.730469 579.101562 639.28125 C 582.332031 638.835938 585.503906 638.128906 588.621094 637.164062 C 591.734375 636.199219 594.75 634.988281 597.667969 633.527344 C 600.582031 632.070312 603.363281 630.386719 606.003906 628.476562 C 608.152344 627.082031 610.171875 625.519531 612.0625 623.792969 C 613.953125 622.066406 615.691406 620.199219 617.277344 618.1875 C 618.863281 616.175781 620.273438 614.046875 621.507812 611.804688 C 622.742188 609.5625 623.789062 607.234375 624.640625 604.820312 L 686.472656 604.820312 C 684.839844 611.6875 682.625 618.359375 679.828125 624.839844 C 677.027344 631.320312 673.691406 637.511719 669.816406 643.410156 C 665.941406 649.3125 661.582031 654.835938 656.746094 659.976562 C 651.90625 665.121094 646.660156 669.808594 641.003906 674.039062 C 635.570312 677.640625 629.890625 680.804688 623.96875 683.527344 C 618.046875 686.253906 611.945312 688.507812 605.675781 690.289062 C 599.402344 692.070312 593.027344 693.363281 586.554688 694.160156 C 580.082031 694.957031 573.589844 695.25 567.070312 695.042969 C 557.710938 695.167969 548.429688 694.359375 539.234375 692.617188 C 530.035156 690.878906 521.101562 688.242188 512.433594 684.707031 C 504.59375 681.441406 497.199219 677.367188 490.25 672.488281 C 483.300781 667.609375 476.960938 662.039062 471.230469 655.773438 C 465.519531 649.210938 460.492188 642.164062 456.144531 634.632812 C 451.796875 627.097656 448.214844 619.21875 445.390625 610.992188 C 442.222656 601.800781 439.871094 592.402344 438.332031 582.800781 C 436.792969 573.199219 436.089844 563.539062 436.226562 553.816406 C 436.167969 544.257812 436.9375 534.765625 438.527344 525.339844 C 440.117188 515.914062 442.507812 506.691406 445.699219 497.679688 C 446.761719 494.535156 447.949219 491.4375 449.257812 488.386719 C 450.5625 485.332031 451.988281 482.335938 453.53125 479.398438 C 455.078125 476.457031 456.734375 473.582031 458.503906 470.773438 C 460.273438 467.964844 462.148438 465.226562 464.132812 462.5625 C 466.121094 459.902344 468.207031 457.320312 470.394531 454.824219 C 472.582031 452.324219 474.867188 449.914062 477.242188 447.597656 C 479.621094 445.277344 482.085938 443.054688 484.640625 440.929688 C 487.191406 438.804688 489.824219 436.78125 492.535156 434.863281 C 495.25 432.945312 498.03125 431.132812 500.886719 429.433594 C 503.742188 427.734375 506.65625 426.148438 509.636719 424.675781 C 512.617188 423.207031 515.648438 421.855469 518.734375 420.621094 C 521.820312 419.386719 524.949219 418.277344 528.121094 417.292969 C 531.292969 416.304688 534.5 415.441406 537.742188 414.707031 C 540.984375 413.972656 544.246094 413.367188 547.535156 412.886719 C 550.824219 412.40625 554.128906 412.058594 557.441406 411.839844 C 560.757812 411.621094 564.078125 411.53125 567.402344 411.574219 C 572.328125 411.46875 577.238281 411.679688 582.136719 412.199219 C 587.035156 412.714844 591.882812 413.542969 596.675781 414.675781 C 601.46875 415.808594 606.171875 417.242188 610.785156 418.96875 C 615.398438 420.699219 619.882812 422.710938 624.238281 425.007812 C 632.144531 429.339844 639.46875 434.5 646.203125 440.492188 C 652.941406 446.480469 658.917969 453.148438 664.140625 460.492188 C 669.484375 468.199219 674.054688 476.339844 677.847656 484.914062 C 681.644531 493.484375 684.597656 502.339844 686.710938 511.472656 C 691.371094 531.199219 693.003906 551.171875 691.613281 571.394531 L 507.4375 571.394531 C 507.070312 576.074219 507.148438 580.742188 507.679688 585.40625 C 508.207031 590.070312 509.179688 594.640625 510.589844 599.117188 C 512 603.59375 513.824219 607.898438 516.0625 612.023438 C 518.300781 616.148438 520.914062 620.027344 523.898438 623.648438 Z M 604.699219 482.445312 C 602.125 479.871094 599.300781 477.597656 596.238281 475.628906 C 593.171875 473.65625 589.933594 472.035156 586.519531 470.757812 C 583.109375 469.480469 579.597656 468.578125 575.992188 468.050781 C 572.386719 467.527344 568.765625 467.386719 565.128906 467.636719 C 560.304688 467.453125 555.535156 467.886719 550.824219 468.9375 C 546.113281 469.988281 541.613281 471.621094 537.324219 473.835938 C 530.460938 477.609375 524.570312 482.546875 519.660156 488.644531 C 515.308594 494.355469 512.148438 500.664062 510.1875 507.570312 C 508.425781 513.296875 507.335938 519.144531 506.917969 525.121094 L 620.992188 525.121094 C 620.746094 521.261719 620.210938 517.441406 619.390625 513.664062 C 618.570312 509.882812 617.472656 506.1875 616.09375 502.570312 C 614.71875 498.957031 613.078125 495.464844 611.175781 492.09375 C 609.273438 488.726562 607.132812 485.519531 604.746094 482.46875 Z M 604.699219 482.445312 "/></g><path style=" stroke:none;fill-rule:nonzero;fill:#ffffff;fill-opacity:1;" d="M 492.210938 341.574219 L 635.15625 341.574219 L 635.15625 378.074219 L 492.210938 378.074219 Z M 492.210938 341.574219 "/></g></svg>