<svg xmlns="http://www.w3.org/2000/svg" xmlns:xlink="http://www.w3.org/1999/xlink" width="40" zoomAndPan="magnify" viewBox="0 0 30 37.92" height="40" preserveAspectRatio="xMidYMid meet" version="1.2"><defs><clipPath id="0a9441e2fc"><path d="M 2.089844 6.449219 L 16 6.449219 L 16 23.664062 L 2.089844 23.664062 Z M 2.089844 6.449219 "/></clipPath><clipPath id="19b22ca99e"><path d="M 16 10 L 27.539062 10 L 27.539062 23.664062 L 16 23.664062 Z M 16 10 "/></clipPath></defs><g id="479b7df295"><g clip-rule="nonzero" clip-path="url(#0a9441e2fc)"><path style=" stroke:none;fill-rule:nonzero;fill:#ffffff;fill-opacity:1;" d="M 9.457031 6.460938 C 10.144531 6.449219 10.828125 6.519531 11.5 6.675781 C 12.070312 6.804688 12.59375 7.035156 13.078125 7.367188 C 13.527344 7.703125 13.867188 8.132812 14.09375 8.652344 C 14.351562 9.289062 14.472656 9.953125 14.457031 10.640625 C 14.484375 11.40625 14.308594 12.113281 13.917969 12.769531 C 13.511719 13.386719 12.980469 13.851562 12.324219 14.167969 C 13.230469 14.417969 13.945312 14.9375 14.476562 15.730469 C 14.976562 16.558594 15.214844 17.460938 15.183594 18.4375 C 15.203125 19.210938 15.050781 19.945312 14.734375 20.644531 C 14.445312 21.257812 14.03125 21.769531 13.503906 22.179688 C 12.960938 22.585938 12.367188 22.878906 11.71875 23.058594 C 11.050781 23.246094 10.371094 23.339844 9.675781 23.339844 L 2.089844 23.339844 L 2.089844 6.460938 Z M 9.015625 13.285156 C 9.574219 13.308594 10.078125 13.152344 10.527344 12.816406 C 10.972656 12.40625 11.171875 11.894531 11.121094 11.28125 C 11.132812 10.945312 11.070312 10.621094 10.929688 10.316406 C 10.8125 10.070312 10.636719 9.875 10.40625 9.734375 C 10.175781 9.582031 9.925781 9.480469 9.652344 9.4375 C 9.359375 9.378906 9.066406 9.351562 8.769531 9.359375 L 5.527344 9.359375 L 5.527344 13.300781 L 9.015625 13.300781 Z M 9.207031 20.472656 C 9.535156 20.476562 9.859375 20.441406 10.175781 20.363281 C 10.46875 20.296875 10.742188 20.179688 10.988281 20.003906 C 11.234375 19.828125 11.421875 19.605469 11.554688 19.332031 C 11.707031 18.984375 11.777344 18.617188 11.757812 18.234375 C 11.828125 17.5 11.601562 16.878906 11.078125 16.375 C 10.542969 15.96875 9.941406 15.785156 9.277344 15.824219 L 5.527344 15.824219 L 5.527344 20.472656 Z M 9.207031 20.472656 "/></g><g clip-rule="nonzero" clip-path="url(#19b22ca99e)"><path style=" stroke:none;fill-rule:nonzero;fill:#ffffff;fill-opacity:1;" d="M 20.078125 20.410156 C 20.648438 20.949219 21.320312 21.195312 22.09375 21.144531 C 22.691406 21.160156 23.234375 20.988281 23.71875 20.628906 C 24.113281 20.367188 24.386719 20.007812 24.542969 19.554688 L 27.285156 19.554688 C 26.980469 20.851562 26.308594 21.902344 25.269531 22.699219 C 24.273438 23.375 23.183594 23.695312 21.992188 23.65625 C 21.152344 23.667969 20.347656 23.511719 19.570312 23.1875 C 18.867188 22.886719 18.257812 22.445312 17.746094 21.871094 C 17.234375 21.269531 16.851562 20.589844 16.601562 19.835938 C 16.316406 18.992188 16.179688 18.125 16.195312 17.234375 C 16.1875 16.359375 16.328125 15.507812 16.613281 14.683594 C 16.804688 14.109375 17.074219 13.574219 17.429688 13.085938 C 17.785156 12.597656 18.203125 12.179688 18.6875 11.828125 C 19.171875 11.476562 19.699219 11.210938 20.265625 11.03125 C 20.832031 10.847656 21.414062 10.761719 22.007812 10.769531 C 22.898438 10.75 23.738281 10.953125 24.527344 11.378906 C 25.234375 11.777344 25.824219 12.316406 26.292969 12.992188 C 26.773438 13.699219 27.105469 14.472656 27.292969 15.3125 C 27.5 16.207031 27.574219 17.117188 27.511719 18.035156 L 19.347656 18.035156 C 19.28125 18.925781 19.523438 19.71875 20.078125 20.410156 Z M 23.660156 13.992188 C 23.175781 13.496094 22.589844 13.269531 21.90625 13.316406 C 21.472656 13.300781 21.058594 13.394531 20.675781 13.601562 C 20.371094 13.769531 20.109375 13.996094 19.890625 14.273438 C 19.699219 14.53125 19.558594 14.820312 19.472656 15.132812 C 19.394531 15.394531 19.34375 15.660156 19.328125 15.929688 L 24.382812 15.929688 C 24.335938 15.207031 24.097656 14.5625 23.660156 13.992188 Z M 23.660156 13.992188 "/></g><path style=" stroke:none;fill-rule:nonzero;fill:#ffffff;fill-opacity:1;" d="M 18.675781 7.585938 L 25.007812 7.585938 L 25.007812 9.246094 L 18.675781 9.246094 Z M 18.675781 7.585938 "/></g></svg>