<svg xmlns="http://www.w3.org/2000/svg" xmlns:xlink="http://www.w3.org/1999/xlink" width="1080" zoomAndPan="magnify" viewBox="0 0 810 1012.49997" height="1350" preserveAspectRatio="xMidYMid meet" version="1.2"><defs><clipPath id="791fcaf0f3"><path d="M 117.988281 218.988281 L 692.203125 218.988281 L 692.203125 790 L 117.988281 790 Z M 117.988281 218.988281 "/></clipPath></defs><g id="4b40146e38"><g clip-rule="nonzero" clip-path="url(#791fcaf0f3)"><path style=" stroke:none;fill-rule:nonzero;fill:#ffffff;fill-opacity:1;" d="M 692.207031 506.097656 C 692.207031 347.53125 563.664062 218.988281 405.097656 218.988281 C 246.53125 218.988281 117.988281 347.53125 117.988281 506.097656 C 117.988281 649.402344 222.980469 768.179688 360.234375 789.71875 L 360.234375 589.089844 L 287.335938 589.089844 L 287.335938 506.097656 L 360.234375 506.097656 L 360.234375 442.84375 C 360.234375 370.886719 403.097656 331.140625 468.679688 331.140625 C 500.09375 331.140625 532.949219 336.746094 532.949219 336.746094 L 532.949219 407.402344 L 496.746094 407.402344 C 461.082031 407.402344 449.957031 429.535156 449.957031 452.238281 L 449.957031 506.097656 L 529.585938 506.097656 L 516.855469 589.089844 L 449.957031 589.089844 L 449.957031 789.71875 C 587.214844 768.179688 692.207031 649.402344 692.207031 506.097656 "/></g></g></svg>