<svg xmlns="http://www.w3.org/2000/svg" xmlns:xlink="http://www.w3.org/1999/xlink" width="40" zoomAndPan="magnify" viewBox="0 0 30 37.92" height="40" preserveAspectRatio="xMidYMid meet" version="1.2"><defs><clipPath id="d191a3ed30"><path d="M 3.023438 2.992188 L 26.976562 2.992188 L 26.976562 26.941406 L 3.023438 26.941406 Z M 3.023438 2.992188 "/></clipPath></defs><g id="a73f29c35a"><g clip-rule="nonzero" clip-path="url(#d191a3ed30)"><path style=" stroke:none;fill-rule:nonzero;fill:#ffffff;fill-opacity:1;" d="M 26.976562 14.96875 C 26.976562 8.355469 21.613281 2.992188 15 2.992188 C 8.386719 2.992188 3.023438 8.355469 3.023438 14.96875 C 3.023438 20.945312 7.402344 25.898438 13.128906 26.796875 L 13.128906 18.429688 L 10.089844 18.429688 L 10.089844 14.96875 L 13.128906 14.96875 L 13.128906 12.332031 C 13.128906 9.328125 14.917969 7.671875 17.652344 7.671875 C 18.960938 7.671875 20.332031 7.90625 20.332031 7.90625 L 20.332031 10.851562 L 18.824219 10.851562 C 17.335938 10.851562 16.871094 11.773438 16.871094 12.722656 L 16.871094 14.96875 L 20.191406 14.96875 L 19.660156 18.429688 L 16.871094 18.429688 L 16.871094 26.796875 C 22.597656 25.898438 26.976562 20.945312 26.976562 14.96875 "/></g></g></svg>