<svg xmlns="http://www.w3.org/2000/svg" xmlns:xlink="http://www.w3.org/1999/xlink" width="1080" zoomAndPan="magnify" viewBox="0 0 810 1012.49997" height="1350" preserveAspectRatio="xMidYMid meet" version="1.2"><defs><clipPath id="b35ab293f4"><path d="M 117.988281 218.988281 L 692.203125 218.988281 L 692.203125 793.207031 L 117.988281 793.207031 Z M 117.988281 218.988281 "/></clipPath></defs><g id="da4f08e6c6"><g clip-rule="nonzero" clip-path="url(#b35ab293f4)"><path style=" stroke:none;fill-rule:nonzero;fill:#ffffff;fill-opacity:1;" d="M 286.1875 221 C 255.640625 222.441406 234.777344 227.316406 216.542969 234.480469 C 197.667969 241.835938 181.667969 251.707031 165.75 267.683594 C 149.835938 283.65625 140.03125 299.667969 132.730469 318.570312 C 125.660156 336.847656 120.871094 357.726562 119.523438 388.289062 C 118.171875 418.855469 117.875 428.679688 118.023438 506.648438 C 118.171875 584.617188 118.515625 594.386719 120 625.015625 C 121.457031 655.558594 126.316406 676.414062 133.480469 694.65625 C 140.847656 713.53125 150.707031 729.523438 166.6875 745.449219 C 182.667969 761.371094 198.667969 771.148438 217.613281 778.464844 C 235.875 785.523438 256.757812 790.335938 287.320312 791.671875 C 317.878906 793.011719 327.714844 793.320312 405.660156 793.171875 C 483.605469 793.019531 493.417969 792.675781 524.039062 791.222656 C 554.664062 789.769531 575.410156 784.878906 593.65625 777.746094 C 612.53125 770.363281 628.535156 760.519531 644.449219 744.535156 C 660.359375 728.546875 670.15625 712.527344 677.453125 693.613281 C 684.527344 675.351562 689.332031 654.46875 690.660156 623.933594 C 692 593.285156 692.3125 583.5 692.164062 505.546875 C 692.015625 427.589844 691.664062 417.816406 690.210938 387.199219 C 688.757812 356.582031 683.894531 335.789062 676.734375 317.535156 C 669.355469 298.660156 659.507812 282.679688 643.535156 266.746094 C 627.558594 250.8125 611.527344 241.019531 592.617188 233.742188 C 574.347656 226.671875 553.472656 221.855469 522.914062 220.535156 C 492.355469 219.210938 482.519531 218.875 404.546875 219.023438 C 326.574219 219.171875 316.8125 219.503906 286.1875 221 M 289.542969 740.019531 C 261.546875 738.804688 246.347656 734.152344 236.21875 730.257812 C 222.804688 725.089844 213.25 718.84375 203.15625 708.847656 C 193.0625 698.851562 186.859375 689.261719 181.625 675.875 C 177.691406 665.746094 172.953125 650.5625 171.644531 622.570312 C 170.21875 592.316406 169.921875 583.230469 169.753906 506.578125 C 169.585938 429.925781 169.878906 420.855469 171.207031 390.585938 C 172.402344 362.617188 177.082031 347.402344 180.96875 337.277344 C 186.136719 323.847656 192.359375 314.308594 202.382812 304.21875 C 212.402344 294.128906 221.960938 287.917969 235.359375 282.679688 C 245.476562 278.730469 260.660156 274.03125 288.640625 272.699219 C 318.917969 271.265625 327.992188 270.976562 404.632812 270.8125 C 481.273438 270.644531 490.367188 270.933594 520.65625 272.265625 C 548.628906 273.480469 563.851562 278.117188 573.960938 282.027344 C 587.382812 287.195312 596.929688 293.402344 607.019531 303.4375 C 617.109375 313.476562 623.328125 323.003906 628.566406 336.425781 C 632.519531 346.515625 637.21875 361.691406 638.539062 389.691406 C 639.980469 419.96875 640.308594 429.046875 640.445312 505.683594 C 640.582031 582.320312 640.3125 591.417969 638.988281 621.675781 C 637.761719 649.667969 633.125 664.875 629.226562 675.015625 C 624.058594 688.421875 617.828125 697.984375 607.800781 708.066406 C 597.773438 718.148438 588.226562 724.363281 574.824219 729.597656 C 564.71875 733.542969 549.519531 738.253906 521.558594 739.585938 C 491.28125 741.007812 482.207031 741.308594 405.539062 741.472656 C 328.871094 741.640625 319.824219 741.332031 289.546875 740.019531 M 523.597656 352.648438 C 523.601562 353.777344 523.65625 354.902344 523.769531 356.027344 C 523.882812 357.148438 524.050781 358.261719 524.269531 359.371094 C 524.492188 360.476562 524.769531 361.570312 525.097656 362.648438 C 525.429688 363.726562 525.808594 364.789062 526.242188 365.832031 C 526.675781 366.871094 527.160156 367.890625 527.695312 368.882812 C 528.226562 369.878906 528.808594 370.84375 529.4375 371.78125 C 530.066406 372.71875 530.738281 373.621094 531.457031 374.492188 C 532.171875 375.363281 532.933594 376.199219 533.730469 376.996094 C 534.53125 377.792969 535.367188 378.546875 536.242188 379.261719 C 537.113281 379.976562 538.019531 380.644531 538.960938 381.269531 C 539.898438 381.898438 540.867188 382.472656 541.863281 383.003906 C 542.859375 383.535156 543.878906 384.015625 544.921875 384.445312 C 545.964844 384.875 547.027344 385.253906 548.109375 385.578125 C 549.1875 385.902344 550.28125 386.175781 551.390625 386.394531 C 552.496094 386.613281 553.613281 386.777344 554.734375 386.882812 C 555.859375 386.992188 556.984375 387.046875 558.113281 387.042969 C 559.242188 387.042969 560.367188 386.984375 561.488281 386.871094 C 562.613281 386.761719 563.726562 386.59375 564.832031 386.371094 C 565.9375 386.148438 567.03125 385.871094 568.113281 385.542969 C 569.191406 385.214844 570.25 384.832031 571.292969 384.398438 C 572.335938 383.964844 573.351562 383.480469 574.347656 382.945312 C 575.339844 382.414062 576.308594 381.832031 577.242188 381.203125 C 578.179688 380.574219 579.085938 379.902344 579.957031 379.183594 C 580.828125 378.464844 581.660156 377.707031 582.457031 376.910156 C 583.253906 376.109375 584.007812 375.273438 584.722656 374.398438 C 585.4375 373.527344 586.109375 372.617188 586.734375 371.679688 C 587.359375 370.742188 587.9375 369.773438 588.464844 368.777344 C 588.996094 367.78125 589.476562 366.761719 589.90625 365.71875 C 590.335938 364.671875 590.714844 363.613281 591.039062 362.53125 C 591.363281 361.449219 591.636719 360.355469 591.855469 359.25 C 592.074219 358.140625 592.234375 357.027344 592.34375 355.902344 C 592.453125 354.78125 592.507812 353.65625 592.503906 352.527344 C 592.5 351.398438 592.445312 350.273438 592.332031 349.148438 C 592.21875 348.027344 592.050781 346.914062 591.828125 345.804688 C 591.605469 344.699219 591.332031 343.605469 591 342.527344 C 590.671875 341.449219 590.289062 340.386719 589.855469 339.347656 C 589.421875 338.304688 588.9375 337.285156 588.40625 336.292969 C 587.871094 335.296875 587.289062 334.332031 586.660156 333.394531 C 586.03125 332.457031 585.359375 331.554688 584.640625 330.683594 C 583.921875 329.8125 583.164062 328.980469 582.367188 328.183594 C 581.566406 327.386719 580.730469 326.628906 579.855469 325.917969 C 578.980469 325.203125 578.074219 324.53125 577.136719 323.90625 C 576.195312 323.28125 575.226562 322.703125 574.230469 322.175781 C 573.234375 321.644531 572.214844 321.164062 571.171875 320.734375 C 570.128906 320.304688 569.066406 319.929688 567.988281 319.601562 C 566.90625 319.277344 565.8125 319.003906 564.707031 318.789062 C 563.597656 318.570312 562.484375 318.40625 561.359375 318.296875 C 560.238281 318.191406 559.109375 318.136719 557.980469 318.140625 C 556.855469 318.140625 555.730469 318.199219 554.605469 318.3125 C 553.484375 318.425781 552.371094 318.589844 551.261719 318.8125 C 550.15625 319.035156 549.066406 319.3125 547.984375 319.640625 C 546.90625 319.972656 545.847656 320.351562 544.804688 320.785156 C 543.765625 321.21875 542.746094 321.703125 541.753906 322.238281 C 540.757812 322.769531 539.792969 323.351562 538.855469 323.980469 C 537.917969 324.609375 537.015625 325.28125 536.144531 326 C 535.273438 326.71875 534.441406 327.476562 533.644531 328.273438 C 532.847656 329.074219 532.09375 329.910156 531.378906 330.78125 C 530.664062 331.65625 529.996094 332.5625 529.371094 333.5 C 528.746094 334.441406 528.167969 335.410156 527.636719 336.40625 C 527.105469 337.398438 526.628906 338.417969 526.199219 339.460938 C 525.765625 340.503906 525.390625 341.566406 525.0625 342.648438 C 524.738281 343.726562 524.464844 344.820312 524.25 345.929688 C 524.03125 347.035156 523.867188 348.148438 523.757812 349.273438 C 523.648438 350.394531 523.597656 351.519531 523.597656 352.648438 M 257.679688 506.382812 C 257.839844 587.808594 323.964844 653.664062 405.371094 653.511719 C 486.777344 653.355469 552.683594 587.234375 552.527344 505.808594 C 552.371094 424.386719 486.226562 358.511719 404.808594 358.671875 C 323.390625 358.832031 257.523438 424.972656 257.679688 506.382812 M 309.390625 506.28125 C 309.390625 504.714844 309.425781 503.148438 309.5 501.585938 C 309.570312 500.019531 309.683594 498.457031 309.835938 496.898438 C 309.984375 495.339844 310.171875 493.785156 310.398438 492.234375 C 310.628906 490.6875 310.890625 489.144531 311.195312 487.605469 C 311.496094 486.070312 311.835938 484.539062 312.214844 483.019531 C 312.59375 481.5 313.007812 479.992188 313.457031 478.492188 C 313.910156 476.992188 314.398438 475.503906 314.921875 474.027344 C 315.449219 472.550781 316.007812 471.089844 316.605469 469.640625 C 317.203125 468.195312 317.832031 466.761719 318.5 465.34375 C 319.167969 463.925781 319.867188 462.527344 320.605469 461.144531 C 321.339844 459.761719 322.109375 458.398438 322.910156 457.050781 C 323.714844 455.707031 324.546875 454.382812 325.417969 453.078125 C 326.285156 451.773438 327.183594 450.492188 328.113281 449.230469 C 329.042969 447.972656 330.003906 446.734375 330.996094 445.523438 C 331.988281 444.3125 333.007812 443.125 334.058594 441.960938 C 335.105469 440.796875 336.183594 439.660156 337.289062 438.550781 C 338.394531 437.441406 339.527344 436.359375 340.683594 435.304688 C 341.84375 434.253906 343.027344 433.226562 344.234375 432.230469 C 345.445312 431.234375 346.675781 430.269531 347.933594 429.332031 C 349.191406 428.398438 350.46875 427.492188 351.769531 426.621094 C 353.070312 425.75 354.390625 424.90625 355.730469 424.101562 C 357.074219 423.292969 358.433594 422.519531 359.816406 421.777344 C 361.195312 421.035156 362.59375 420.328125 364.007812 419.65625 C 365.421875 418.984375 366.851562 418.347656 368.296875 417.746094 C 369.742188 417.140625 371.203125 416.574219 372.675781 416.046875 C 374.148438 415.515625 375.636719 415.019531 377.132812 414.5625 C 378.632812 414.105469 380.140625 413.683594 381.660156 413.300781 C 383.175781 412.917969 384.703125 412.570312 386.238281 412.261719 C 387.777344 411.953125 389.316406 411.683594 390.867188 411.449219 C 392.414062 411.21875 393.96875 411.023438 395.527344 410.867188 C 397.085938 410.710938 398.648438 410.589844 400.210938 410.511719 C 401.777344 410.429688 403.339844 410.390625 404.90625 410.386719 C 406.472656 410.382812 408.039062 410.417969 409.601562 410.492188 C 411.167969 410.566406 412.730469 410.679688 414.289062 410.828125 C 415.847656 410.980469 417.402344 411.167969 418.953125 411.394531 C 420.5 411.621094 422.046875 411.886719 423.582031 412.1875 C 425.117188 412.492188 426.648438 412.832031 428.167969 413.210938 C 429.6875 413.585938 431.195312 414 432.695312 414.453125 C 434.195312 414.90625 435.683594 415.394531 437.160156 415.917969 C 438.636719 416.441406 440.097656 417.003906 441.546875 417.597656 C 442.996094 418.195312 444.425781 418.828125 445.84375 419.496094 C 447.261719 420.160156 448.660156 420.863281 450.042969 421.597656 C 451.425781 422.332031 452.789062 423.101562 454.136719 423.90625 C 455.480469 424.707031 456.804688 425.542969 458.109375 426.410156 C 459.414062 427.277344 460.695312 428.175781 461.957031 429.109375 C 463.214844 430.039062 464.453125 431 465.664062 431.992188 C 466.878906 432.980469 468.066406 434.003906 469.226562 435.050781 C 470.390625 436.101562 471.527344 437.179688 472.636719 438.285156 C 473.746094 439.390625 474.828125 440.519531 475.882812 441.679688 C 476.9375 442.839844 477.960938 444.023438 478.957031 445.230469 C 479.953125 446.4375 480.917969 447.671875 481.855469 448.929688 C 482.789062 450.183594 483.695312 451.460938 484.566406 452.761719 C 485.4375 454.0625 486.28125 455.386719 487.085938 456.726562 C 487.894531 458.070312 488.671875 459.429688 489.410156 460.808594 C 490.152344 462.1875 490.859375 463.585938 491.53125 465 C 492.203125 466.414062 492.839844 467.847656 493.445312 469.292969 C 494.046875 470.738281 494.613281 472.199219 495.144531 473.671875 C 495.671875 475.144531 496.167969 476.628906 496.625 478.128906 C 497.082031 479.625 497.503906 481.132812 497.886719 482.652344 C 498.269531 484.171875 498.617188 485.699219 498.925781 487.234375 C 499.234375 488.769531 499.503906 490.3125 499.738281 491.859375 C 499.96875 493.410156 500.164062 494.964844 500.320312 496.523438 C 500.476562 498.082031 500.597656 499.640625 500.675781 501.207031 C 500.757812 502.769531 500.796875 504.335938 500.800781 505.902344 C 500.804688 507.46875 500.769531 509.035156 500.695312 510.597656 C 500.621094 512.164062 500.507812 513.722656 500.359375 515.285156 C 500.207031 516.84375 500.019531 518.398438 499.792969 519.945312 C 499.566406 521.496094 499.300781 523.039062 499 524.578125 C 498.695312 526.113281 498.355469 527.640625 497.980469 529.160156 C 497.601562 530.683594 497.1875 532.191406 496.734375 533.691406 C 496.285156 535.191406 495.796875 536.679688 495.269531 538.15625 C 494.746094 539.628906 494.183594 541.09375 493.589844 542.539062 C 492.992188 543.988281 492.359375 545.421875 491.695312 546.839844 C 491.027344 548.257812 490.324219 549.65625 489.589844 551.039062 C 488.855469 552.421875 488.085938 553.785156 487.28125 555.128906 C 486.480469 556.476562 485.644531 557.800781 484.777344 559.105469 C 483.910156 560.410156 483.011719 561.691406 482.082031 562.949219 C 481.148438 564.210938 480.1875 565.445312 479.199219 566.660156 C 478.207031 567.871094 477.1875 569.058594 476.136719 570.222656 C 475.085938 571.382812 474.007812 572.519531 472.902344 573.628906 C 471.796875 574.742188 470.667969 575.820312 469.507812 576.875 C 468.351562 577.929688 467.167969 578.957031 465.957031 579.953125 C 464.75 580.949219 463.515625 581.914062 462.261719 582.847656 C 461.003906 583.785156 459.726562 584.6875 458.425781 585.5625 C 457.125 586.433594 455.804688 587.273438 454.460938 588.082031 C 453.121094 588.890625 451.757812 589.664062 450.378906 590.40625 C 449 591.148438 447.601562 591.855469 446.1875 592.527344 C 444.773438 593.199219 443.34375 593.835938 441.894531 594.4375 C 440.449219 595.039062 438.992188 595.605469 437.515625 596.136719 C 436.042969 596.667969 434.558594 597.164062 433.058594 597.621094 C 431.5625 598.078125 430.054688 598.5 428.535156 598.882812 C 427.015625 599.265625 425.488281 599.609375 423.953125 599.921875 C 422.417969 600.230469 420.875 600.5 419.328125 600.730469 C 417.777344 600.964844 416.222656 601.160156 414.667969 601.316406 C 413.109375 601.472656 411.546875 601.589844 409.980469 601.671875 C 408.417969 601.75 406.851562 601.792969 405.285156 601.796875 C 403.71875 601.800781 402.15625 601.765625 400.589844 601.691406 C 399.023438 601.617188 397.464844 601.503906 395.90625 601.355469 C 394.34375 601.203125 392.789062 601.015625 391.242188 600.789062 C 389.691406 600.5625 388.148438 600.296875 386.609375 599.996094 C 385.074219 599.695312 383.546875 599.355469 382.023438 598.976562 C 380.503906 598.597656 378.996094 598.183594 377.496094 597.734375 C 375.996094 597.28125 374.507812 596.792969 373.03125 596.269531 C 371.554688 595.742188 370.09375 595.183594 368.644531 594.585938 C 367.195312 593.988281 365.765625 593.359375 364.347656 592.691406 C 362.929688 592.023438 361.53125 591.324219 360.148438 590.589844 C 358.765625 589.851562 357.398438 589.082031 356.054688 588.28125 C 354.710938 587.476562 353.386719 586.644531 352.082031 585.777344 C 350.777344 584.90625 349.496094 584.007812 348.234375 583.078125 C 346.976562 582.148438 345.738281 581.1875 344.527344 580.195312 C 343.3125 579.203125 342.125 578.183594 340.960938 577.132812 C 339.800781 576.085938 338.664062 575.007812 337.554688 573.902344 C 336.445312 572.796875 335.363281 571.664062 334.308594 570.507812 C 333.253906 569.347656 332.230469 568.164062 331.234375 566.957031 C 330.238281 565.746094 329.269531 564.515625 328.335938 563.257812 C 327.398438 562 326.496094 560.722656 325.621094 559.421875 C 324.75 558.121094 323.910156 556.800781 323.101562 555.457031 C 322.292969 554.117188 321.519531 552.753906 320.777344 551.375 C 320.039062 549.996094 319.332031 548.597656 318.660156 547.183594 C 317.984375 545.769531 317.347656 544.339844 316.746094 542.894531 C 316.144531 541.445312 315.578125 539.988281 315.046875 538.511719 C 314.515625 537.039062 314.023438 535.554688 313.566406 534.054688 C 313.109375 532.558594 312.6875 531.050781 312.304688 529.53125 C 311.921875 528.011719 311.574219 526.484375 311.265625 524.949219 C 310.957031 523.414062 310.6875 521.871094 310.453125 520.320312 C 310.222656 518.773438 310.027344 517.21875 309.871094 515.660156 C 309.714844 514.101562 309.597656 512.539062 309.515625 510.976562 C 309.4375 509.414062 309.394531 507.847656 309.390625 506.28125 "/></g></g></svg>