<svg xmlns="http://www.w3.org/2000/svg" xmlns:xlink="http://www.w3.org/1999/xlink" width="40" zoomAndPan="magnify" viewBox="0 0 30 37.92" height="40" preserveAspectRatio="xMidYMid meet" version="1.2"><defs><clipPath id="b20806afd0"><path d="M 3.023438 2.992188 L 26.976562 2.992188 L 26.976562 26.941406 L 3.023438 26.941406 Z M 3.023438 2.992188 "/></clipPath></defs><g id="0d066dce4e"><g clip-rule="nonzero" clip-path="url(#b20806afd0)"><path style=" stroke:none;fill-rule:nonzero;fill:#ffffff;fill-opacity:1;" d="M 10.039062 3.078125 C 8.765625 3.136719 7.894531 3.339844 7.136719 3.640625 C 6.347656 3.945312 5.679688 4.359375 5.015625 5.023438 C 4.351562 5.691406 3.945312 6.359375 3.640625 7.148438 C 3.34375 7.910156 3.144531 8.78125 3.089844 10.054688 C 3.03125 11.328125 3.019531 11.738281 3.027344 14.992188 C 3.03125 18.242188 3.046875 18.652344 3.109375 19.929688 C 3.167969 21.203125 3.371094 22.070312 3.671875 22.832031 C 3.980469 23.621094 4.390625 24.289062 5.054688 24.953125 C 5.722656 25.617188 6.390625 26.023438 7.179688 26.328125 C 7.941406 26.621094 8.8125 26.824219 10.085938 26.878906 C 11.363281 26.933594 11.773438 26.949219 15.023438 26.941406 C 18.273438 26.933594 18.683594 26.921875 19.960938 26.859375 C 21.238281 26.800781 22.101562 26.597656 22.863281 26.296875 C 23.652344 25.992188 24.320312 25.578125 24.984375 24.914062 C 25.648438 24.246094 26.054688 23.578125 26.359375 22.789062 C 26.65625 22.027344 26.855469 21.15625 26.910156 19.882812 C 26.964844 18.605469 26.980469 18.195312 26.972656 14.945312 C 26.96875 11.695312 26.953125 11.285156 26.890625 10.007812 C 26.832031 8.734375 26.628906 7.867188 26.328125 7.105469 C 26.023438 6.316406 25.609375 5.648438 24.945312 4.984375 C 24.277344 4.320312 23.609375 3.914062 22.820312 3.609375 C 22.058594 3.3125 21.1875 3.113281 19.914062 3.058594 C 18.640625 3.003906 18.230469 2.988281 14.976562 2.996094 C 11.726562 3 11.316406 3.015625 10.039062 3.078125 M 10.179688 24.726562 C 9.011719 24.675781 8.378906 24.480469 7.957031 24.316406 C 7.398438 24.101562 7 23.839844 6.578125 23.425781 C 6.15625 23.007812 5.898438 22.609375 5.679688 22.050781 C 5.515625 21.628906 5.316406 20.992188 5.261719 19.828125 C 5.203125 18.5625 5.191406 18.1875 5.183594 14.988281 C 5.175781 11.792969 5.191406 11.414062 5.246094 10.152344 C 5.292969 8.984375 5.488281 8.347656 5.652344 7.925781 C 5.867188 7.367188 6.128906 6.96875 6.546875 6.546875 C 6.964844 6.128906 7.363281 5.867188 7.921875 5.648438 C 8.34375 5.484375 8.976562 5.289062 10.144531 5.234375 C 11.40625 5.175781 11.785156 5.160156 14.980469 5.15625 C 18.175781 5.148438 18.554688 5.160156 19.820312 5.214844 C 20.988281 5.265625 21.621094 5.460938 22.042969 5.621094 C 22.601562 5.839844 23 6.097656 23.421875 6.515625 C 23.84375 6.933594 24.101562 7.332031 24.320312 7.890625 C 24.484375 8.3125 24.679688 8.945312 24.738281 10.113281 C 24.796875 11.375 24.808594 11.753906 24.816406 14.953125 C 24.820312 18.148438 24.808594 18.527344 24.753906 19.789062 C 24.703125 20.957031 24.511719 21.589844 24.347656 22.011719 C 24.132812 22.574219 23.871094 22.972656 23.453125 23.390625 C 23.035156 23.8125 22.636719 24.070312 22.078125 24.289062 C 21.65625 24.453125 21.023438 24.652344 19.859375 24.707031 C 18.59375 24.765625 18.214844 24.777344 15.019531 24.785156 C 11.820312 24.792969 11.445312 24.78125 10.179688 24.726562 M 19.941406 8.570312 C 19.941406 8.757812 19.980469 8.941406 20.054688 9.117188 C 20.125 9.292969 20.230469 9.449219 20.363281 9.582031 C 20.5 9.71875 20.65625 9.820312 20.832031 9.894531 C 21.007812 9.96875 21.191406 10.003906 21.382812 10.003906 C 21.574219 10.003906 21.753906 9.964844 21.933594 9.894531 C 22.109375 9.820312 22.261719 9.714844 22.398438 9.582031 C 22.53125 9.445312 22.636719 9.289062 22.707031 9.113281 C 22.78125 8.9375 22.816406 8.753906 22.816406 8.5625 C 22.816406 8.371094 22.777344 8.191406 22.707031 8.011719 C 22.632812 7.835938 22.527344 7.683594 22.394531 7.546875 C 22.257812 7.414062 22.101562 7.308594 21.925781 7.238281 C 21.75 7.164062 21.566406 7.128906 21.375 7.128906 C 21.1875 7.128906 21.003906 7.167969 20.828125 7.238281 C 20.652344 7.3125 20.496094 7.417969 20.363281 7.550781 C 20.226562 7.6875 20.125 7.84375 20.050781 8.019531 C 19.976562 8.195312 19.941406 8.378906 19.941406 8.570312 M 8.851562 14.980469 C 8.859375 18.375 11.617188 21.125 15.011719 21.117188 C 18.40625 21.109375 21.15625 18.351562 21.148438 14.957031 C 21.140625 11.558594 18.382812 8.8125 14.988281 8.820312 C 11.59375 8.828125 8.84375 11.585938 8.851562 14.980469 M 11.007812 14.976562 C 11.007812 14.714844 11.03125 14.453125 11.082031 14.195312 C 11.132812 13.941406 11.210938 13.691406 11.308594 13.449219 C 11.410156 13.207031 11.53125 12.976562 11.675781 12.757812 C 11.820312 12.539062 11.988281 12.335938 12.171875 12.152344 C 12.355469 11.964844 12.558594 11.800781 12.777344 11.652344 C 12.992188 11.507812 13.222656 11.382812 13.464844 11.285156 C 13.707031 11.183594 13.957031 11.105469 14.214844 11.054688 C 14.46875 11.003906 14.730469 10.976562 14.992188 10.976562 C 15.253906 10.976562 15.515625 11 15.769531 11.050781 C 16.027344 11.101562 16.277344 11.175781 16.519531 11.277344 C 16.761719 11.378906 16.992188 11.5 17.210938 11.644531 C 17.429688 11.789062 17.632812 11.957031 17.816406 12.140625 C 18.003906 12.324219 18.167969 12.527344 18.316406 12.742188 C 18.460938 12.960938 18.585938 13.191406 18.683594 13.433594 C 18.785156 13.675781 18.863281 13.925781 18.914062 14.183594 C 18.964844 14.4375 18.992188 14.699219 18.992188 14.960938 C 18.992188 15.222656 18.96875 15.480469 18.917969 15.738281 C 18.867188 15.996094 18.789062 16.246094 18.691406 16.488281 C 18.589844 16.730469 18.46875 16.960938 18.324219 17.179688 C 18.179688 17.398438 18.011719 17.597656 17.828125 17.785156 C 17.644531 17.972656 17.441406 18.136719 17.222656 18.28125 C 17.007812 18.429688 16.777344 18.550781 16.535156 18.652344 C 16.292969 18.753906 16.042969 18.828125 15.785156 18.882812 C 15.53125 18.933594 15.269531 18.960938 15.007812 18.960938 C 14.746094 18.960938 14.484375 18.933594 14.230469 18.882812 C 13.972656 18.835938 13.722656 18.757812 13.480469 18.660156 C 13.238281 18.558594 13.007812 18.4375 12.789062 18.292969 C 12.570312 18.148438 12.367188 17.980469 12.183594 17.796875 C 11.996094 17.613281 11.832031 17.410156 11.683594 17.191406 C 11.539062 16.976562 11.414062 16.746094 11.316406 16.503906 C 11.214844 16.261719 11.136719 16.011719 11.085938 15.753906 C 11.035156 15.496094 11.007812 15.238281 11.007812 14.976562 "/></g></g></svg>