<svg xmlns="http://www.w3.org/2000/svg" xmlns:xlink="http://www.w3.org/1999/xlink" width="1080" zoomAndPan="magnify" viewBox="0 0 810 1012.49997" height="1350" preserveAspectRatio="xMidYMid meet" version="1.2"><defs><clipPath id="b6382da549"><path d="M 154.699219 218.988281 L 655.453125 218.988281 L 655.453125 793.203125 L 154.699219 793.203125 Z M 154.699219 218.988281 "/></clipPath></defs><g id="3b23419a33"><g clip-rule="nonzero" clip-path="url(#b6382da549)"><path style=" stroke:none;fill-rule:nonzero;fill:#ffffff;fill-opacity:1;" d="M 580.652344 334.085938 C 549.714844 313.921875 527.40625 281.644531 520.433594 244.035156 C 518.9375 235.914062 518.101562 227.542969 518.101562 218.988281 L 419.382812 218.988281 L 419.226562 614.617188 C 417.570312 658.921875 381.101562 694.484375 336.410156 694.484375 C 322.511719 694.484375 309.433594 691.011719 297.914062 684.949219 C 271.496094 671.050781 253.421875 643.367188 253.421875 611.507812 C 253.421875 565.75 290.652344 528.515625 336.394531 528.515625 C 344.9375 528.515625 353.132812 529.925781 360.882812 532.347656 L 360.882812 431.566406 C 352.859375 430.472656 344.707031 429.796875 336.394531 429.796875 C 236.210938 429.796875 154.707031 511.304688 154.707031 611.507812 C 154.707031 672.980469 185.414062 727.382812 232.28125 760.277344 C 261.789062 781.003906 297.695312 793.203125 336.410156 793.203125 C 436.597656 793.203125 518.101562 711.695312 518.101562 611.507812 L 518.101562 410.882812 C 556.816406 438.667969 604.257812 455.042969 655.445312 455.042969 L 655.445312 356.324219 C 627.878906 356.324219 602.199219 348.128906 580.652344 334.085938 Z M 580.652344 334.085938 "/></g></g></svg>