<svg xmlns="http://www.w3.org/2000/svg" xmlns:xlink="http://www.w3.org/1999/xlink" width="40" zoomAndPan="magnify" viewBox="0 0 30 37.92" height="40" preserveAspectRatio="xMidYMid meet" version="1.2"><defs><clipPath id="292454c5c2"><path d="M 4.558594 2.992188 L 25.511719 2.992188 L 25.511719 26.941406 L 4.558594 26.941406 Z M 4.558594 2.992188 "/></clipPath></defs><g id="d6d6bca21d"><g clip-rule="nonzero" clip-path="url(#292454c5c2)"><path style=" stroke:none;fill-rule:nonzero;fill:#ffffff;fill-opacity:1;" d="M 22.382812 7.792969 C 21.089844 6.953125 20.152344 5.605469 19.863281 4.039062 C 19.800781 3.699219 19.765625 3.351562 19.765625 2.992188 L 15.632812 2.992188 L 15.628906 19.496094 C 15.558594 21.34375 14.03125 22.824219 12.160156 22.824219 C 11.578125 22.824219 11.03125 22.679688 10.550781 22.429688 C 9.445312 21.847656 8.6875 20.695312 8.6875 19.363281 C 8.6875 17.457031 10.246094 15.902344 12.160156 15.902344 C 12.519531 15.902344 12.859375 15.960938 13.183594 16.0625 L 13.183594 11.859375 C 12.847656 11.8125 12.507812 11.785156 12.160156 11.785156 C 7.96875 11.785156 4.558594 15.1875 4.558594 19.363281 C 4.558594 21.929688 5.84375 24.199219 7.804688 25.570312 C 9.039062 26.433594 10.539062 26.941406 12.160156 26.941406 C 16.355469 26.941406 19.765625 23.542969 19.765625 19.363281 L 19.765625 10.996094 C 21.386719 12.15625 23.371094 12.839844 25.511719 12.839844 L 25.511719 8.722656 C 24.359375 8.722656 23.285156 8.378906 22.382812 7.792969 Z M 22.382812 7.792969 "/></g></g></svg>